#!OML:ASF E:\acrobat2\Project_11_07_03\Capture day 1\Session 1\Acrobat.ASF
:FULLY-SPECIFIED
:DEGREES
2316
root 11.1529 4.15172 10.6304 -82.5439 2.91446 168.791
lowerback -11.947486982986838 -2.884237607825814 -4.879745738814868
upperback -8.22872245803145 -9.298089277708945 10.969277941149414
thorax -3.1024146681314986 -5.38851533185386 10.486641787238629
lowerneck -4.8196400400623025 -16.44299112296675 14.106276076721304
upperneck -30.164377581665615 -23.375445054986105 1.9953750042638043
head -12.27032371599657 -7.844322939652174 -2.969554682662621
rclavicle 2.38542e-15 -1.58034e-14
rhumerus 7.805995061627336 -20.923356152021924 50.78663536321276
rradius 37.14546973914682
rwrist -27.84906554555604
rhand -27.306152995235973 -35.94560067710209
rfingers 5.816200907007279
rthumb 7.120833684918379 -70.27611311370767
lclavicle 2.38542e-15 -1.58034e-14
lhumerus 7.813386829320391 18.138851141614886 -49.78939939637156
lradius 44.327844936871955
lwrist 29.215688157710296
lhand -15.147838562007104 -31.10608535921854
lfingers 9.65425011057717
lthumb 9.30780679928356 -5.397255247961574
rfemur 3.4021247584867393 0.8229764359769561 0.28794882451421266
rtibia 50.15831448083825
rfoot 6.0158853909840335 -9.811363697811743
rtoes 35.38554186300308
lfemur -10.20205669154856 -10.941671975903724 0.7582633452727392
ltibia 59.0314304106369
lfoot 51.3864138774106 9.701038084391497
ltoes 4.47688
2317
root 11.1529 4.15172 10.6304 -82.5439 2.91446 168.791
lowerback -11.934257014540432 -2.878748547743225 -4.841205747368153
upperback -8.232786439137763 -9.255302726648729 10.99910835837097
thorax -3.0351197901164473 -5.434331501087838 10.421502821449872
lowerneck -4.7495114182339755 -16.480298535779273 14.042883456355536
upperneck -30.095788286033752 -23.358005582633538 1.9815496028906292
head -12.250644371343734 -7.7660655183893414 -2.9318475269719353
rclavicle 2.38542e-15 -1.58034e-14
rhumerus 5.394784177772127 -17.429953277005012 50.066129039196205
rradius 39.2652692703547
rwrist -27.81484643088655
rhand -27.297106013596494 -35.94620026198505
rfingers 5.882682351528435
rthumb 7.041021280604072 -70.22356245304427
lclavicle 2.38542e-15 -1.58034e-14
lhumerus 8.827801155765837 15.10258215006189 -52.69702601801051
lradius 41.55141657285019
lwrist 29.203424483535006
lhand -15.118344261324983 -31.05955500687594
lfingers 9.66545816648233
lthumb 9.292584885849255 -5.347478568382125
rfemur 3.3772189289121393 0.5461401625391893 0.5026892956900619
rtibia 49.36063890538311
rfoot 6.295548339167645 -10.118961749879233
rtoes 35.6371924260168
lfemur -9.76538096574981 -11.052261299037882 0.37295639477830245
ltibia 61.74912555214373
lfoot 50.91941399154578 9.277749473399743
ltoes 4.47688
2318
root 11.1529 4.15172 10.6304 -82.5439 2.91446 168.791
lowerback -11.894305685664486 -2.9197533445472716 -4.810160735154198
upperback -8.274112365449515 -9.249469453513106 10.945493995295985
thorax -3.0365555611967237 -5.4829300546395 10.402726077620406
lowerneck -4.741231751694929 -16.505955790680858 14.091274231006304
upperneck -30.18497655204099 -23.37784185261224 1.9552892542554954
head -12.156131798927943 -7.796721600556419 -2.873408391674515
rclavicle 2.38542e-15 -1.58034e-14
rhumerus 2.6789464715398834 -14.33478356143813 51.35123536694939
rradius 38.212153727215046
rwrist -27.803605840004558
rhand -27.306578143525307 -35.93911138753115
rfingers 5.880444388386152
rthumb 6.950737230279119 -70.26049710824583
lclavicle 2.38542e-15 -1.58034e-14
lhumerus 5.958429451481528 14.028752367987586 -49.157245309815146
lradius 39.82080490474375
lwrist 29.10492961942219
lhand -15.090644536890412 -31.078608202082062
lfingers 9.593007046859654
lthumb 9.249068521254456 -5.350315493907521
rfemur 3.4923698180951113 0.5442725854485982 0.012972859086140986
rtibia 51.37391069072616
rfoot 6.074701372513683 -10.219149035093164
rtoes 35.91259500411576
lfemur -9.400417115101742 -10.640714315558895 0.6352086328234189
ltibia 57.068834561569915
lfoot 50.81858838476654 8.998876193096898
ltoes 4.47688
2319
root 11.1529 4.15172 10.6304 -82.5439 2.91446 168.791
lowerback -11.86582777067742 -2.975532121067157 -4.849403693185304
upperback -8.224052365459224 -9.181977472330894 10.994052138548613
thorax -3.078259113465959 -5.566056366718115 10.491648729776516
lowerneck -4.7322928969821 -16.592454398338678 13.994776845469485
upperneck -30.14716678702819 -23.356871563550666 1.900060858711138
head -12.19250441347774 -7.814341931966414 -2.774949828723655
rclavicle 2.38542e-15 -1.58034e-14
rhumerus 5.033911536175771 -13.233088508662519 55.81074880240129
rradius 35.91041896843134
rwrist -27.899168033359715
rhand -27.301426209006596 -36.02127005754714
rfingers 5.80191451437147
rthumb 7.014461508137208 -70.31205157535554
lclavicle 2.38542e-15 -1.58034e-14
lhumerus 7.583530461206902 13.409338181938864 -50.22093449197952
lradius 38.02941033816497
lwrist 29.069791663064102
lhand -15.066179747700371 -31.12968441933758
lfingers 9.689331028011654
lthumb 9.204888307403106 -5.407641528643149
rfemur 3.9122292197673394 0.4333252823590258 0.3335187137439576
rtibia 53.518009436932594
rfoot 5.683930037776031 -10.701867265466232
rtoes 35.996038441410725
lfemur -9.33836895647282 -10.248269755997319 0.5226331977198315
ltibia 55.370195150078295
lfoot 50.48916952168924 8.625009229823858
ltoes 4.47688
2320
root 11.1529 4.15172 10.6304 -82.5439 2.91446 168.791
lowerback -11.959184890839781 -2.963979347937721 -4.873404709660583
upperback -8.20585853572274 -9.21797090662246 10.903372224075053
thorax -3.043434494884408 -5.656411019103208 10.511291152977016
lowerneck -4.708879688336095 -16.624601277713843 14.042507949694926
upperneck -30.1011420833939 -23.36341254268652 1.8003024341032061
head -12.19639670689524 -7.766512296603159 -2.6829948898995544
rclavicle 2.38542e-15 -1.58034e-14
rhumerus 4.014390622051114 -10.873929781429155 58.59331773178697
rradius 36.30934357826833
rwrist -27.809404467877236
rhand -27.348490353996286 -36.00286271827252
rfingers 5.900733757452216
rthumb 6.982681561962023 -70.28171951180882
lclavicle 2.38542e-15 -1.58034e-14
lhumerus 8.684588297455317 15.463371715339349 -45.2860936958169
lradius 36.396950519789726
lwrist 29.051396975371773
lhand -15.02305975407116 -31.114163803610573
lfingers 9.637346732818488
lthumb 9.174865847598868 -5.38107537858094
rfemur 3.4339980728249686 0.5550301600144145 0.587938151328082
rtibia 50.392634438038826
rfoot 5.742674242635217 -10.518909159304904
rtoes 36.062957339636334
lfemur -9.815585128127713 -10.523004586264253 0.29266053401931347
ltibia 59.84711140237356
lfoot 50.12110692671346 8.216577427164777
ltoes 4.47688
2321
root 11.1529 4.15172 10.6304 -82.5439 2.91446 168.791
lowerback -12.020988753707154 -3.024751420564481 -4.792986838480182
upperback -8.269939596141462 -9.164924246576215 10.957377642293915
thorax -3.0966771650811635 -5.557238537746809 10.51276685076673
lowerneck -4.801965010728925 -16.65912975993679 14.009932945708991
upperneck -30.007001115753436 -23.341448601596326 1.7062084166955382
head -12.186589825987939 -7.681925470093158 -2.733307550385671
rclavicle 2.38542e-15 -1.58034e-14
rhumerus 3.531574185676268 -14.535611590342773 57.4934308770651
rradius 34.388013141302345
rwrist -27.872061521088416
rhand -27.40259223312257 -36.09781110881376
rfingers 5.946740391697728
rthumb 7.073118355472952 -70.35362000051317
lclavicle 2.38542e-15 -1.58034e-14
lhumerus 11.02495826667719 14.759187430605886 -44.564774659016656
lradius 33.73368145570745
lwrist 28.97514182056349
lhand -15.108944119633923 -31.06925002150359
lfingers 9.577855683560943
lthumb 9.219504929227778 -5.467149157045526
rfemur 3.297596119508107 0.7061732376101408 0.9920099598888888
rtibia 50.87229675805496
rfoot 5.8654664761683755 -10.621696037298014
rtoes 35.94048336436878
lfemur -9.971222141475167 -10.794170223791665 0.2012271237911416
ltibia 63.881860070195444
lfoot 50.10131054207341 8.031105769916062
ltoes 4.47688
2322
root 11.1529 4.15172 10.6304 -82.5439 2.91446 168.791
lowerback -12.038580243298679 -3.071663169273216 -4.777715911035517
upperback -8.357129495712348 -9.111783838569018 11.03379183576478
thorax -3.1338749543046864 -5.550531426331446 10.433916329667673
lowerneck -4.726614810674541 -16.66818439900647 13.948433841945352
upperneck -30.082642377121225 -23.246777852026526 1.6774392487430976
head -12.27087307381596 -7.709183564898472 -2.736929402824157
rclavicle 2.38542e-15 -1.58034e-14
rhumerus 4.5261237385257385 -10.75858613703968 53.618912347869525
rradius 34.662230971801876
rwrist -27.884815950337803
rhand -27.449660967770768 -36.11814571389194
rfingers 6.028231104917025
rthumb 6.9963521674497215 -70.30206813736271
lclavicle 2.38542e-15 -1.58034e-14
lhumerus 7.453586699294835 11.299650300739792 -46.9762834014596
lradius 32.42726188431298
lwrist 29.065076494103145
lhand -15.125801321326627 -31.023271055596094
lfingers 9.584262485157147
lthumb 9.23833074791304 -5.411873004230704
rfemur 3.0442534413875513 0.5493975081362629 1.1203465325081639
rtibia 48.599676977876065
rfoot 5.8545704250348525 -10.956386530645034
rtoes 36.274032912895436
lfemur -9.710383567262602 -10.981584384224016 -0.14203226134897395
ltibia 63.66761976025586
lfoot 49.933101156157726 7.594365451928582
ltoes 4.47688
2323
root 11.1529 4.15172 10.6304 -82.5439 2.91446 168.791
lowerback -11.989058721603255 -3.137014510809927 -4.8722059003406075
upperback -8.36787655109779 -9.168934871942641 11.035716807775286
thorax -3.0932892155886904 -5.632399405422653 10.398403040320064
lowerneck -4.655821699446425 -16.59016174137042 13.891172369596564
upperneck -29.992802576774462 -23.240249145110873 1.7701803108652834
head -12.2165499217596 -7.805799157273318 -2.744870890672706
rclavicle 2.38542e-15 -1.58034e-14
rhumerus 1.989165114138289 -10.941531290674881 49.75068650611075
rradius 33.28744288707635
rwrist -27.857889400282186
rhand -27.37178550262703 -36.208586598315335
rfingers 6.098601318966626
rthumb 7.080699220093032 -70.25123336567064
lclavicle 2.38542e-15 -1.58034e-14
lhumerus 5.203941581476115 15.790659973354337 -48.076067392311145
lradius 33.449304275217905
lwrist 29.098801750918415
lhand -15.193409738874792 -31.06247331376454
lfingers 9.572625867441525
lthumb 9.168084715134425 -5.476790276611215
rfemur 3.1141205261937657 0.6735227053908924 0.771023043296548
rtibia 50.74882073185224
rfoot 5.5570200679041415 -10.972783856354638
rtoes 36.35709465696286
lfemur -9.652644417994104 -11.303850404261095 -0.22467731232625943
ltibia 61.65188021673513
lfoot 50.109260153097445 7.993529168872607
ltoes 4.47688
